<?xml version="1.0" standalone="no"?>
<!DOCTYPE svg PUBLIC "-//W3C//DTD SVG 20010904//EN"
 "http://www.w3.org/TR/2001/REC-SVG-20010904/DTD/svg10.dtd">
<svg version="1.0" xmlns="http://www.w3.org/2000/svg"
 width="521.000000pt" height="403.000000pt" viewBox="0 0 521.000000 403.000000"
 preserveAspectRatio="xMidYMid meet">

<g transform="translate(0.000000,403.000000) scale(0.100000,-0.100000)"
fill="#000000" stroke="none">
<path d="M4954 1575 c-61 -13 -200 -46 -310 -75 -498 -129 -875 -223 -1059
-265 -110 -25 -210 -47 -222 -50 -23 -5 -23 -7 -23 -176 l0 -170 -57 -26 c-32
-14 -110 -39 -173 -55 -98 -26 -139 -31 -280 -35 -228 -7 -400 22 -576 97
l-44 19 0 92 c0 90 0 91 -22 84 -13 -3 -214 -9 -448 -12 -517 -7 -890 11
-1319 63 -68 8 -126 13 -128 10 -8 -7 85 -205 147 -313 106 -182 220 -337 351
-476 l74 -77 98 -15 c497 -78 1057 -92 1527 -40 758 85 1477 300 2174 650
l199 100 44 100 c55 129 115 312 147 458 28 124 30 137 19 136 -5 0 -58 -11
-119 -24z"/>
</g>
</svg>
