<?xml version="1.0" standalone="no"?>
<!DOCTYPE svg PUBLIC "-//W3C//DTD SVG 20010904//EN"
 "http://www.w3.org/TR/2001/REC-SVG-20010904/DTD/svg10.dtd">
<svg version="1.0" xmlns="http://www.w3.org/2000/svg"
 width="626.000000pt" height="626.000000pt" viewBox="0 0 626.000000 626.000000"
 preserveAspectRatio="xMidYMid meet">

<g transform="translate(0.000000,626.000000) scale(0.100000,-0.100000)"
fill="#000000" stroke="none">
<path d="M2145 6254 c-177 -15 -474 -79 -599 -130 -33 -13 -65 -24 -72 -24
-11 0 -258 -122 -319 -157 -267 -157 -514 -382 -707 -645 -199 -271 -341 -616
-400 -978 -29 -170 -31 -531 -5 -697 78 -495 303 -938 652 -1286 68 -68 145
-139 170 -158 25 -19 69 -51 97 -73 139 -106 386 -238 568 -303 261 -93 494
-133 780 -134 378 -1 680 68 1015 231 392 191 725 494 950 865 161 266 249
506 306 835 29 167 30 185 26 395 -8 373 -74 652 -232 979 -184 379 -508 733
-869 950 -89 54 -334 176 -352 176 -7 0 -34 9 -61 21 -74 31 -284 86 -423 109
-122 20 -411 33 -525 24z m305 -748 c162 -12 325 -53 482 -120 407 -177 727
-531 862 -956 41 -129 76 -341 76 -467 0 -87 -22 -269 -45 -368 -141 -604
-672 -1086 -1290 -1171 -451 -61 -896 69 -1233 363 -313 273 -499 639 -532
1046 -11 132 -2 319 21 428 135 657 663 1153 1319 1238 130 18 181 18 340 7z"/>
<path d="M4490 2554 c-72 -24 -92 -41 -193 -168 -127 -160 -282 -314 -442
-441 -66 -52 -129 -111 -142 -132 -41 -69 -28 -153 36 -229 14 -17 60 -71 101
-120 41 -49 89 -105 106 -124 25 -28 144 -168 292 -345 9 -11 84 -99 165 -195
82 -96 208 -245 281 -330 285 -336 309 -362 359 -394 141 -89 274 -97 427 -28
45 21 107 77 354 321 164 163 314 320 333 349 71 109 90 224 57 347 -32 127
-75 172 -507 535 -190 160 -367 310 -763 646 -175 149 -332 278 -349 286 -35
18 -93 29 -115 22z"/>
</g>
</svg>
