<?xml version="1.0" standalone="no"?>
<!DOCTYPE svg PUBLIC "-//W3C//DTD SVG 20010904//EN"
 "http://www.w3.org/TR/2001/REC-SVG-20010904/DTD/svg10.dtd">
<svg version="1.0" xmlns="http://www.w3.org/2000/svg"
 width="626.000000pt" height="626.000000pt" viewBox="0 0 626.000000 626.000000"
 preserveAspectRatio="xMidYMid meet">

<g transform="translate(0.000000,626.000000) scale(0.100000,-0.100000)"
fill="#000000" stroke="none">
<path d="M2995 6245 c-141 -36 -226 -85 -327 -187 -80 -81 -123 -150 -162
-263 -20 -59 -21 -79 -24 -1037 l-3 -978 -947 0 c-908 0 -950 -1 -1029 -20
-128 -30 -211 -77 -306 -173 -129 -129 -196 -286 -197 -459 -1 -274 188 -527
465 -622 59 -20 80 -21 1037 -24 l977 -3 3 -977 c3 -957 4 -978 24 -1037 39
-112 85 -186 169 -270 205 -205 485 -251 745 -122 66 32 103 59 167 124 96 95
143 178 173 306 19 79 20 121 20 1030 l0 947 948 0 c908 0 950 1 1029 20 128
30 211 77 306 173 94 93 154 200 181 320 74 321 -119 648 -449 761 -59 20 -80
21 -1037 24 l-977 3 -3 977 c-3 957 -4 978 -24 1037 -60 174 -182 317 -334
392 -137 68 -300 90 -425 58z"/>
</g>
</svg>
